<?xml version="1.0" encoding="utf-8"?>
<!-- Generator: Adobe Illustrator 16.0.0, SVG Export Plug-In . SVG Version: 6.00 Build 0)  -->
<!DOCTYPE svg PUBLIC "-//W3C//DTD SVG 1.1//EN" "http://www.w3.org/Graphics/SVG/1.1/DTD/svg11.dtd">
<svg version="1.1" id="Слой_1" xmlns="http://www.w3.org/2000/svg" xmlns:xlink="http://www.w3.org/1999/xlink" x="0px" y="0px"
	 width="404.422px" height="29.912px" viewBox="0 0 404.422 29.912" enable-background="new 0 0 404.422 29.912"
	 xml:space="preserve">
<g>
	<path fill-rule="evenodd" clip-rule="evenodd" fill="#DDD9D2" d="M198.347,0h0.002h4.078h4.08h4.082h4.079h4.078h4.082h4.08h4.08
		h4.08h4.081h4.08h4.079h4.079h4.08h4.082h4.08h4.079h4.08h4.081h4.079h4.081h4.082h4.078h4.079h4.08h4.081h4.08h4.079h4.08h4.08
		h4.081h4.079h4.08h4.081h4.08h4.078h4.081h4.081h4.08h4.08h4.079h4.079h4.079h4.082h4.081h4.077h4.081h4.081h4.079h4.079h2.401
		v4.224h-2.401h-4.079h-4.079h-4.081h-4.081h-4.077h-4.081h-4.082h-4.079h-4.079h-4.079h-4.08h-4.08h-4.081h-4.081h-4.078h-4.08
		h-4.081h-4.08h-4.079h-4.081h-4.08h-4.08h-4.079h-4.08h-4.081h-4.08h-4.079h-4.078h-4.082h-4.081h-4.079h-4.081h-4.08h-4.079h-4.08
		h-4.082h-4.08h-4.079h-4.079h-4.08h-4.081h-4.08h-4.08h-4.08h-4.082h-4.078h-4.079h-4.082h-4.08h-4.078h-0.002h-4.078h-4.08h-4.08
		h-4.081h-4.08h-4.08h-4.079h-4.082h-4.08h-4.078h-4.083h-4.079h-4.078h-4.081h-4.081h-4.08h-4.08h-4.079h-4.082h-4.079h-4.081
		h-4.078h-4.082h-4.079h-4.08h-4.079h-4.078h-4.083h-4.08h-4.079h-4.081h-4.08h-4.08h-4.08h-4.079h-4.08h-4.082h-4.079h-4.08h-4.079
		h-4.081h-4.079h-4.081h-4.082h-4.079h-4.08H6.587H2.506H0V0h2.506h4.081h4.079h4.08h4.079h4.082h4.081h4.079h4.081h4.079h4.08
		h4.079h4.082h4.08h4.079h4.08h4.08h4.08h4.081h4.079h4.08h4.083h4.078h4.079h4.08h4.079h4.082h4.078h4.081h4.079h4.082h4.079h4.08
		h4.08h4.081h4.081h4.078h4.079h4.083h4.078h4.08h4.082h4.079h4.08h4.08h4.081h4.08h4.08H198.347L198.347,0z M14.902,25.191
		l2.358,2.359l-2.358,2.361l-2.36-2.361l-2.359-2.359L7.821,27.55l-2.359,2.361l-2.36-2.361l2.36-2.359l2.359-2.361l-2.359-2.355
		l-2.36,2.355l-2.357,2.361L0,24.449v-3.236l0.744-0.738l2.357-2.363l2.36-2.359l2.359-2.36l-2.359-2.36l-2.36,2.36l-2.357,2.36
		L0,16.495v-1.487v-3.234v-1.483l0.744,0.741l2.357-2.358l2.36-2.361l2.359,2.361l2.361,2.358l2.359-2.358l2.36-2.361l2.358,2.361
		l2.36,2.358l2.361-2.358l2.36-2.361l2.358,2.361l2.36,2.358l0.009,0.009l0.025-0.026l2.361-2.359l2.36-2.362l2.359,2.362
		l2.358,2.359l2.36-2.359l2.36-2.362l2.36,2.362l2.358,2.359l2.362-2.359l2.359-2.362l2.36,2.362l2.359,2.359l2.359-2.359
		l2.36-2.362l2.36,2.362l2.359,2.359l2.36-2.359l2.358-2.362l2.36,2.362l2.361,2.359l2.359-2.359l2.359-2.362l2.361,2.362
		l2.358,2.359l0.012,0.01l0.014-0.01l2.357-2.359l2.361-2.362l2.36,2.362l2.361,2.359l2.361-2.359l2.356-2.362l2.36,2.362
		l2.362,2.359l2.359-2.359l2.358-2.362l2.361,2.362l2.358,2.359l2.361-2.359l2.359-2.362l2.361,2.362l2.36,2.359l2.357-2.359
		l2.36-2.362l2.359,2.362l2.36,2.359l2.36-2.359l2.358-2.362l2.362,2.362l2.357,2.359l2.36-2.359l2.361-2.362l2.36,2.362
		l2.358,2.359l2.36-2.359l2.36-2.362l2.358,2.362l2.36,2.359l2.36-2.359l2.359-2.362l2.361,2.362l2.359,2.359l0.01,0.009
		l0.027-0.025l2.358-2.359l2.36-2.362l2.36,2.362l2.359,2.359l2.36-2.359l2.358-2.362l2.361,2.362l2.359,2.359l2.36-2.359
		l2.358-2.362l2.363,2.362l2.357,2.359l2.359-2.359l2.36-2.362l2.361,2.362l2.357,2.359l2.359-2.359l2.361-2.362l2.359,2.362
		l2.36,2.359l2.359-2.359l2.357-2.362l2.363,2.362l2.358,2.359l0.014,0.012l0.012-0.012l2.359-2.361l2.36-2.36l2.359,2.36
		l2.358,2.361l2.36-2.361l2.36-2.36l2.359,2.36l2.359,2.361l2.36-2.361l2.36-2.36l2.359,2.36l2.359,2.361l2.36-2.361l2.357-2.36
		l2.362,2.36l2.358,2.361l2.361-2.361l2.359-2.36l2.36,2.36l2.359,2.361l2.359-2.361l2.36-2.36l2.361,2.36l2.361,2.361l0.009,0.008
		l2.357-2.355l2.359-2.36l2.359,2.36l2.358,2.361l2.361-2.361l2.36-2.36l2.358,2.36l2.36,2.361l2.359-2.361l2.36-2.36l2.358,2.36
		l2.359,2.361l2.361-2.361l2.361-2.36l2.357,2.36l2.362,2.361l2.357-2.361l2.361-2.36l2.36,2.36l2.359,2.361l2.358-2.361l2.361-2.36
		l2.36,2.36l2.357,2.358l0.024-0.028l2.359-2.357l2.36-2.36l2.36,2.36l2.359,2.357l2.359-2.357l2.36-2.36l2.36,2.36l2.358,2.357
		l2.361-2.357l2.358-2.36l2.361,2.36l2.357,2.357l2.36-2.357l2.36-2.36l2.36,2.36l2.359,2.357l2.36-2.357l2.358-2.36l2.361,2.36
		l2.359,2.357l2.359-2.357l2.36-2.36l2.359,2.36l2.361,2.357l2.36-2.357l2.36-2.36l2.356,2.36l0.327,0.323v4.071v0.648v4.071
		l-0.327,0.326l0.327,0.324v4.068v0.65v4.07l-0.327,0.326l-2.356,2.357l-2.36-2.357l2.36-2.361l2.356-2.359l-2.356-2.36l-2.36,2.36
		l-2.36,2.359l-2.361-2.359l2.361-2.36l2.36-2.358l2.36-2.359l2.356-2.361l-2.356-2.361l-2.36,2.361l-2.36,2.361l-2.361,2.359
		l-2.359,2.358l-2.36-2.358l-2.359-2.359l-2.359-2.361l-2.361-2.361l-2.358,2.361l2.358,2.361l2.361,2.359l2.359,2.358l2.359,2.36
		l-2.359,2.359l-2.359-2.359l-2.361-2.36l-2.358,2.36l2.358,2.359l2.361,2.361l-2.361,2.357l-2.358-2.357l-2.36-2.361l-2.359,2.361
		l-2.36,2.357l-2.36-2.357l2.36-2.361l2.36-2.359l-2.36-2.36l-2.36,2.36l-2.36,2.359l-2.357-2.359l2.357-2.36l2.36-2.358l2.36-2.359
		l2.36-2.361l-2.36-2.361l-2.36,2.361l-2.36,2.361l-2.357,2.359l-2.361,2.358l-2.358-2.358l-2.361-2.359l-2.358-2.361l-2.36-2.361
		l-2.36,2.361l2.36,2.361l2.36,2.359l2.358,2.358l2.361,2.36l-2.361,2.359l-2.358-2.359l-2.36-2.36l-2.36,2.36l2.36,2.359
		l2.36,2.361l-2.36,2.357l-2.36-2.357l-2.359-2.361l-2.359,2.361l-2.36,2.357l-2.36-2.357l2.36-2.361l2.36-2.359l-2.36-2.36
		l-2.36,2.36l-2.359,2.359l-2.358-2.359l2.358-2.36l2.359-2.358l2.36-2.359l2.36-2.361l-2.36-2.361l-2.36,2.361l-0.026,0.025
		l0.003,0.001l-2.359,2.361l-2.358,2.358l-2.36,2.361l-2.361-2.361l-2.358-2.358l-2.359-2.361l-2.36-2.357l-2.361,2.357l2.361,2.361
		l2.36,2.358l2.359,2.361l2.358,2.359l-2.358,2.359l-2.359-2.359l-2.36-2.359l-2.361,2.359l2.361,2.359l2.36,2.359l-2.36,2.36
		l-2.361-2.36l-2.357-2.359l-2.362,2.359l-2.357,2.36l-2.361-2.36l2.361-2.359l2.357-2.359l-2.357-2.359l-2.361,2.359l-2.361,2.359
		l-2.359-2.359l2.359-2.359l2.361-2.361l2.361-2.358l2.357-2.361l-2.357-2.357l-2.361,2.357l-2.361,2.361l-2.359,2.358l-2.358,2.361
		l-2.36-2.361l-2.359-2.358l-2.36-2.361l-2.358-2.357l-2.36,2.357l2.36,2.361l2.358,2.358l2.36,2.361l2.359,2.359l-2.359,2.359
		l-2.36-2.359l-2.358-2.359l-2.36,2.359l2.36,2.359l2.358,2.359l-2.358,2.36l-2.36-2.36l-2.361-2.359l-2.358,2.359l-2.359,2.36
		l-2.359-2.36l2.359-2.359l2.359-2.359l-2.359-2.359l-2.359,2.359l-2.362,2.359l-2.359-2.359l2.359-2.359l2.362-2.361l2.359-2.358
		l2.359-2.361l-2.359-2.357l-2.359,2.357l-2.362,2.361l-0.01-0.013l-2.355,2.359l-2.361,2.361l-2.36-2.361l-2.359-2.359
		l-2.359-2.361l-2.36-2.358l-2.359,2.358l2.359,2.361l2.36,2.359l2.359,2.361l2.359,2.357l-2.359,2.359l-2.359-2.359l-2.36-2.357
		l-2.359,2.357l2.359,2.359l2.36,2.361l-2.36,2.357l-2.359-2.357l-2.361-2.361l-2.358,2.361l-2.362,2.357l-2.357-2.357l2.357-2.361
		l2.362-2.359l-2.362-2.357l-2.357,2.357l-2.36,2.359l-2.359-2.359l2.359-2.357l2.36-2.361l2.357-2.359l2.362-2.361l-2.362-2.358
		l-2.357,2.358l-2.36,2.361l-2.359,2.359l-2.359,2.361l-2.36-2.361l-2.36-2.359l-2.359-2.361l-2.359-2.358l-2.36,2.358l2.36,2.361
		l2.359,2.359l2.359,2.361l2.36,2.357l-2.36,2.359l-2.359-2.359l-2.359-2.357l-2.36,2.357l2.36,2.359l2.359,2.361l-2.359,2.357
		l-2.36-2.357l-2.36-2.361l-2.358,2.361l-2.359,2.357l-2.36-2.357l2.36-2.361l2.359-2.359l-2.359-2.357l-2.36,2.357l-2.359,2.359
		l-2.363-2.359l2.363-2.357l2.359-2.361l2.36-2.359l2.359-2.361l-2.359-2.358l-2.36,2.358l-2.359,2.361l-0.012-0.014l-0.014,0.014
		l-2.358,2.359l-2.363,2.361l-2.357-2.361l-2.359-2.359l-2.36-2.361l-2.359-2.358l-2.361,2.358l2.361,2.361l2.359,2.359l2.36,2.361
		l2.359,2.357l-2.359,2.359l-2.36-2.359l-2.359-2.357l-2.361,2.357l2.361,2.359l2.359,2.361l-2.359,2.357l-2.361-2.357l-2.359-2.361
		l-2.357,2.361l-2.361,2.357l-2.36-2.357l2.36-2.361l2.361-2.359l-2.361-2.357l-2.36,2.357l-2.359,2.359l-2.357-2.359l2.357-2.357
		l2.359-2.361l2.36-2.359l2.361-2.361l-2.361-2.358l-2.36,2.358l-2.359,2.361l-2.357,2.359l-2.363,2.361l-2.358-2.361l-2.36-2.359
		l-2.359-2.361l-2.361-2.358l-2.358,2.358l2.358,2.361l2.361,2.359l2.359,2.361l2.36,2.357l-2.36,2.359l-2.359-2.359l-2.361-2.357
		l-2.358,2.357l2.358,2.359l2.361,2.361l-2.361,2.357l-2.358-2.357l-2.36-2.361l-2.359,2.361l-2.36,2.357l-2.36-2.357l2.36-2.361
		l2.36-2.359l-2.36-2.357l-2.36,2.357l-2.358,2.359l-2.36-2.359l2.36-2.357l2.358-2.361l2.36-2.359l2.36-2.361l-2.36-2.358
		l-2.36,2.358l-2.358,2.361l-0.011-0.014l-0.026,0.029l-2.359,2.359l-2.361,2.361l-2.359-2.361l-2.36-2.359l-2.36-2.36l-2.358-2.359
		l-2.36,2.359l2.36,2.36l2.358,2.359l2.36,2.361l2.36,2.357l-2.36,2.363l-2.36-2.363l-2.358-2.357l-2.36,2.357l2.36,2.363
		l2.358,2.357l-2.358,2.357l-2.36-2.357l-2.36-2.357l-2.358,2.357l-2.36,2.357l-2.361-2.357l2.361-2.357l2.36-2.363l-2.36-2.357
		l-2.361,2.357l-2.36,2.363l-2.361-2.363l2.361-2.357l2.36-2.361l2.361-2.359l2.36-2.36l-2.36-2.359l-2.361,2.359l0,0l-2.36,2.36
		l-2.357,2.359l-2.362,2.361l-2.358-2.361l-2.36-2.359l-2.36-2.36l-2.359-2.359l-2.36,2.359l2.36,2.36l2.359,2.359l2.36,2.361
		l2.36,2.357l-2.36,2.363l-2.36-2.363l-2.359-2.357l-2.36,2.357l2.36,2.363l2.359,2.357l-2.359,2.357l-2.36-2.357l-2.357-2.357
		l-2.36,2.357l-2.361,2.357l-2.359-2.357l2.359-2.357l2.361-2.363l-2.361-2.357l-2.359,2.357l-2.361,2.363l-2.358-2.363l2.358-2.357
		l2.361-2.361l2.359-2.359l2.361-2.36l-2.361-2.359l-2.359,2.359l-2.361,2.36l-2.358,2.359l-2.361,2.361l-2.358-2.361l-2.359-2.359
		l-2.362-2.36l-2.36-2.359l-2.356,2.359l2.356,2.36l2.36,2.359l2.362,2.361l2.359,2.357l-2.359,2.363l-2.362-2.363l-2.36-2.357
		l-2.356,2.357l2.356,2.363l2.36,2.357l-2.36,2.357l-2.356-2.357l-2.361-2.357l-2.361,2.357l-2.36,2.357l-2.361-2.357l2.361-2.357
		l2.36-2.363l-2.36-2.357l-2.361,2.357l-2.357,2.363l-2.359-2.363l2.359-2.357l2.357-2.361l2.361-2.359l2.36-2.36l-2.36-2.359
		l-2.361,2.359l-2.357,2.36l-0.012-0.011l-0.014,0.011l-2.358,2.359l-2.361,2.361l-2.359-2.361l-2.359-2.359l-2.361-2.36
		l-2.36-2.359l-2.358,2.359l2.358,2.36l2.36,2.359l2.361,2.361l2.359,2.357l-2.359,2.363l-2.361-2.363l-2.36-2.357l-2.358,2.357
		l2.358,2.363l2.36,2.357l-2.36,2.357l-2.358-2.357l-2.36-2.357l-2.359,2.357l-2.36,2.357l-2.36-2.357l2.36-2.357l2.36-2.363
		l-2.36-2.357l-2.36,2.357l-2.359,2.363l-2.359-2.363l2.359-2.357l2.359-2.361l2.36-2.359l2.36-2.36l-2.36-2.359l-2.36,2.359
		l-2.359,2.36l-2.359,2.359l-2.36,2.361l-2.359-2.361l-2.362-2.359l-2.358-2.36l-2.36-2.359l-2.36,2.359l2.36,2.36l2.36,2.359
		l2.358,2.361l2.362,2.357l-2.362,2.363l-2.358-2.363l-2.36-2.357l-2.36,2.357l2.36,2.363l2.36,2.357l-2.36,2.357l-2.36-2.357
		l-2.36-2.357l-2.358,2.357l-2.359,2.357l-2.36-2.357l2.36-2.357l2.359-2.363l-2.359-2.357l-2.36,2.357l-2.361,2.363l-2.358-2.363
		l2.358-2.357l2.361-2.361l2.36-2.359l2.359-2.36l-2.359-2.359l-2.36,2.359l-2.361,2.36l-0.007-0.008l-0.027,0.025l-2.36,2.359
		l-2.358,2.363l-2.36-2.363l-2.361-2.359l-2.36-2.36l-2.358-2.36l-2.36,2.36l2.36,2.36l2.358,2.359l2.36,2.363l2.361,2.355
		l-2.361,2.361l-2.36-2.361l-2.358-2.355l-2.36,2.355L14.902,25.191L14.902,25.191z M10.183,20.474l2.359-2.363l-2.359-2.359
		l-2.361,2.359L10.183,20.474L10.183,20.474z M24.343,15.751l-2.36-2.36l2.36-2.36l2.358,2.36L24.343,15.751L24.343,15.751z
		 M151.831,20.455l2.36-2.361l-2.36-2.359l-2.358,2.359L151.831,20.455L151.831,20.455z M137.672,15.734l2.359-2.36l-2.359-2.359
		l-2.358,2.359L137.672,15.734L137.672,15.734z M165.99,15.734l-2.359-2.36l2.359-2.359l2.361,2.359L165.99,15.734L165.99,15.734z
		 M392.624,15.705l2.359-2.361l-2.359-2.361l-2.36,2.361L392.624,15.705L392.624,15.705z M378.465,20.422l2.36-2.358l-2.36-2.359
		l-2.359,2.359L378.465,20.422L378.465,20.422z M364.306,15.705l2.361-2.361l-2.361-2.361l-2.358,2.361L364.306,15.705
		L364.306,15.705z M350.147,20.422l2.359-2.358l-2.359-2.359l-2.359,2.359L350.147,20.422L350.147,20.422z M66.854,20.455
		l2.36-2.361l-2.36-2.359l-2.359,2.359L66.854,20.455L66.854,20.455z M52.695,15.734l2.36-2.36l-2.36-2.359l-2.359,2.359
		L52.695,15.734L52.695,15.734z M38.535,20.455l2.36-2.361l-2.36-2.359l-2.358,2.359L38.535,20.455L38.535,20.455z M81.013,15.734
		l-2.359-2.36l2.359-2.359l2.361,2.359L81.013,15.734L81.013,15.734z M208.503,20.439l2.359-2.361l-2.359-2.359l-2.357,2.359
		L208.503,20.439L208.503,20.439z M194.344,15.718l2.363-2.361l-2.363-2.358l-2.358,2.358L194.344,15.718L194.344,15.718z
		 M180.186,20.439l2.36-2.361l-2.36-2.359l-2.359,2.359L180.186,20.439L180.186,20.439z M222.66,15.718l-2.357-2.361l2.357-2.358
		l2.363,2.358L222.66,15.718L222.66,15.718z M123.516,20.455l2.357-2.361l-2.357-2.359l-2.36,2.359L123.516,20.455L123.516,20.455z
		 M109.354,15.734l2.361-2.36l-2.361-2.359l-2.358,2.359L109.354,15.734L109.354,15.734z M95.197,20.455l2.361-2.361l-2.361-2.359
		l-2.361,2.359L95.197,20.455L95.197,20.455z M265.162,20.439l2.361-2.361l-2.361-2.359l-2.358,2.359L265.162,20.439L265.162,20.439
		z M251.005,15.718l2.359-2.361l-2.359-2.358l-2.36,2.358L251.005,15.718L251.005,15.718z M236.845,20.439l2.36-2.361l-2.36-2.359
		l-2.358,2.359L236.845,20.439L236.845,20.439z M279.322,15.718l-2.36-2.361l2.36-2.358l2.361,2.358L279.322,15.718L279.322,15.718z
		 M321.808,20.451l2.357-2.361l-2.357-2.358l-2.362,2.358L321.808,20.451L321.808,20.451z M307.647,15.731l2.358-2.361l-2.358-2.357
		l-2.36,2.357L307.647,15.731L307.647,15.731z M293.487,20.451l2.361-2.361l-2.361-2.358l-2.358,2.358L293.487,20.451
		L293.487,20.451z M335.966,15.731l-2.361-2.361l2.361-2.357l2.36,2.357L335.966,15.731L335.966,15.731z"/>
</g>
</svg>
